<?xml version="1.0" standalone="no"?>
<!DOCTYPE svg PUBLIC "-//W3C//DTD SVG 20010904//EN"
 "http://www.w3.org/TR/2001/REC-SVG-20010904/DTD/svg10.dtd">
<svg version="1.0" xmlns="http://www.w3.org/2000/svg"
 width="360.000000pt" height="360.000000pt" viewBox="0 0 360.000000 360.000000"
 preserveAspectRatio="xMidYMid meet">
<metadata>
Created by potrace 1.11, written by Peter Selinger 2001-2013
</metadata>
<g transform="translate(0.000000,360.000000) scale(0.100000,-0.100000)"
fill="#000000" stroke="none">
<path d="M0 1800 l0 -1800 1800 0 1800 0 0 1800 0 1800 -1800 0 -1800 0 0
-1800z m3100 1055 c19 -1 37 -4 40 -5 3 -1 37 -1 76 0 68 2 70 1 83 -27 9 -19
13 -69 12 -152 -1 -76 3 -129 10 -137 7 -9 7 -19 -2 -35 -8 -15 -11 -83 -10
-221 l2 -198 -25 0 c-30 0 -49 29 -65 102 -7 31 -18 62 -26 68 -7 6 -16 29
-20 50 -4 21 -15 56 -26 77 -10 20 -19 43 -19 51 0 34 -101 182 -125 182 -14
0 -55 45 -74 82 -13 25 -56 44 -86 38 -24 -5 -35 1 -35 20 0 12 -9 22 -22 25
-35 9 -313 9 -405 0 -77 -7 -83 -9 -83 -30 0 -12 -9 -30 -20 -40 -11 -10 -17
-22 -13 -28 4 -6 8 -27 9 -46 4 -69 17 -123 30 -128 16 -6 19 -34 5 -48 -5 -6
-6 -35 -4 -66 4 -48 9 -59 29 -68 31 -14 30 -35 -2 -60 -23 -18 -26 -26 -20
-60 4 -24 2 -42 -5 -46 -5 -4 -9 -30 -9 -58 1 -29 1 -59 -1 -67 -7 -48 -4 -50
99 -50 120 0 134 4 156 41 10 17 30 43 44 58 120 126 144 176 157 321 8 91 17
112 39 90 12 -13 13 -38 5 -165 -17 -258 -19 -524 -7 -690 17 -231 17 -230 -7
-230 -17 0 -21 11 -32 92 -22 164 -55 248 -118 299 -20 16 -51 44 -71 61 -19
18 -44 35 -57 37 -86 16 -168 25 -181 20 -15 -6 -18 -21 -20 -96 -1 -14 8 -27
24 -35 18 -9 20 -13 8 -13 -10 0 -15 -5 -12 -13 2 -7 -2 -27 -11 -43 -19 -37
-19 -55 0 -48 19 8 19 -15 0 -40 -18 -24 -19 -60 -3 -86 10 -16 10 -24 0 -40
-15 -25 -15 -65 0 -90 9 -15 9 -24 -1 -44 -9 -15 -11 -35 -6 -53 7 -29 7 -34
3 -125 -4 -98 7 -111 126 -153 39 -14 74 -17 194 -14 133 4 147 2 150 -13 2
-12 -6 -21 -23 -28 -40 -15 -185 -30 -335 -35 -348 -12 -466 -15 -480 -15 -74
4 -193 -4 -282 -17 -116 -17 -161 -13 -156 15 2 13 25 21 93 34 50 10 114 17
143 18 49 0 55 3 102 48 60 58 63 73 15 65 -34 -5 -35 -5 -35 26 0 28 2 31 25
25 17 -4 25 -2 25 7 0 7 10 23 22 36 21 23 21 23 3 58 -19 34 -19 34 4 59 28
29 24 50 -10 51 -35 0 -38 37 -5 59 29 19 33 42 11 66 -16 18 -8 61 14 75 16
9 13 51 -4 65 -21 17 -19 43 4 64 17 16 19 28 14 94 -2 43 -4 84 -4 92 1 8 4
42 7 75 6 71 -5 96 -32 74 -16 -13 -17 -11 -11 20 4 19 14 43 23 52 9 10 13
23 9 29 -4 6 -9 37 -11 68 -2 31 -5 71 -7 87 -2 17 -4 43 -5 58 -2 26 -4 28
-32 22 -25 -6 -30 -3 -30 12 0 11 14 32 30 48 23 22 30 38 30 67 0 26 -4 38
-14 38 -21 0 -30 20 -17 33 17 17 13 67 -5 74 -11 4 -14 14 -10 34 3 17 1 29
-7 32 -9 3 -9 12 0 40 7 23 7 39 2 43 -5 3 -74 5 -153 5 -155 -2 -176 2 -176
29 0 25 17 26 330 23 441 -5 590 -4 600 2 6 4 88 8 183 10 94 2 188 8 207 13
31 8 170 6 270 -3z m-1865 -637 c14 -6 25 -15 25 -19 0 -4 11 -10 25 -13 14
-4 25 -11 25 -16 0 -6 5 -10 11 -10 16 0 88 -77 99 -105 5 -14 16 -25 25 -25
19 0 19 -14 0 -44 -23 -34 -10 -86 21 -86 15 0 24 -6 24 -15 0 -8 -6 -15 -14
-15 -12 0 -17 -9 -33 -60 -5 -19 -5 -26 2 -77 3 -24 1 -52 -5 -62 -8 -16 -6
-22 9 -31 11 -5 27 -7 35 -4 10 4 16 1 16 -9 0 -9 -9 -18 -19 -22 -25 -8 -37
-23 -45 -59 -6 -25 -5 -28 12 -24 11 3 26 2 33 -3 10 -6 6 -9 -12 -9 -27 0
-39 -16 -39 -50 0 -18 2 -18 35 3 19 12 37 30 40 40 7 20 21 22 31 5 4 -6 2
-14 -4 -16 -7 -2 -18 -9 -25 -16 -6 -6 -23 -19 -36 -28 -13 -10 -25 -28 -27
-41 -2 -23 -1 -24 26 -14 41 16 49 0 15 -27 -25 -20 -29 -30 -28 -67 1 -24 3
-83 5 -130 3 -86 15 -119 45 -119 7 0 25 -7 39 -16 19 -13 38 -15 84 -11 58 6
75 1 62 -19 -15 -23 -58 -27 -327 -30 -154 -2 -301 -6 -327 -10 -45 -6 -48 -5
-48 15 0 23 14 31 86 50 43 12 61 40 48 75 -3 9 0 24 7 33 8 9 15 39 16 67 2
28 3 62 4 76 1 14 -2 58 -6 98 -8 71 -9 73 -32 68 -25 -7 -26 -6 -17 18 3 9
14 16 24 16 15 0 18 14 24 103 5 66 3 113 -4 131 -6 17 -8 54 -4 92 5 45 3 68
-6 79 -11 13 -10 19 5 35 16 17 17 25 7 58 -7 20 -13 48 -14 62 -2 20 -8 24
-25 22 -25 -4 -31 16 -12 35 9 9 6 19 -10 42 -20 27 -28 31 -71 31 -27 0 -52
-4 -55 -10 -3 -5 -20 -10 -37 -10 -24 0 -43 -13 -94 -65 -44 -44 -64 -73 -64
-90 0 -13 -11 -35 -25 -47 -18 -17 -26 -38 -30 -73 -3 -28 -8 -57 -11 -67 -3
-9 0 -19 6 -23 13 -8 13 -62 0 -70 -18 -11 -11 -35 10 -35 24 0 26 -25 3 -39
-12 -6 -16 -20 -15 -48 3 -81 3 -100 -1 -163 -4 -67 5 -110 23 -110 5 0 10 6
10 14 0 18 17 29 30 21 7 -4 -4 -23 -25 -46 -25 -28 -34 -46 -31 -62 3 -12 11
-56 17 -97 7 -41 16 -80 21 -86 5 -7 25 -15 46 -18 68 -13 71 -14 63 -44 l-7
-27 -145 -3 c-79 -2 -185 2 -236 8 -79 10 -96 9 -123 -5 -19 -10 -39 -13 -53
-9 -12 4 -34 7 -49 6 -21 -2 -28 2 -28 16 0 21 38 42 75 42 16 0 41 17 71 46
42 42 45 49 38 78 -5 17 -9 99 -9 181 -1 142 -2 152 -23 173 -29 29 -28 38 6
67 24 21 25 26 14 45 -9 15 -10 26 -1 41 15 29 1 169 -17 169 -17 0 -18 -4 6
65 23 66 26 111 8 117 -7 3 -13 22 -13 44 0 36 -2 39 -28 39 -19 0 -31 7 -40
25 -10 20 -21 26 -57 28 -67 4 -77 9 -58 28 13 14 52 17 239 20 123 1 239 7
258 13 39 12 51 7 51 -20 0 -10 3 -19 8 -19 4 0 14 -5 22 -10 12 -8 9 -14 -20
-38 -29 -25 -33 -32 -22 -45 14 -17 42 -12 42 7 0 24 134 110 200 128 75 20
237 24 275 6z"/>
<path d="M2920 2810 c-11 -7 -6 -10 20 -10 19 0 42 5 50 10 11 7 6 10 -20 10
-19 0 -42 -5 -50 -10z"/>
<path d="M3132 2669 c-9 -11 -27 -25 -40 -30 -13 -5 -20 -14 -17 -20 5 -7 17
-2 34 14 14 14 36 28 49 32 12 3 20 11 17 16 -10 15 -24 11 -43 -12z"/>
<path d="M3199 2634 c-6 -8 -19 -14 -28 -14 -10 0 -28 -11 -41 -25 -19 -20
-21 -27 -10 -40 16 -19 29 -19 49 0 9 8 31 27 49 41 17 14 32 29 32 34 0 15
-39 18 -51 4z"/>
<path d="M1985 2620 c-19 -8 -19 -9 2 -9 12 -1 25 4 28 9 7 12 -2 12 -30 0z"/>
<path d="M2090 2603 c-13 -10 -51 -29 -84 -43 -54 -22 -61 -29 -67 -60 -9 -41
-8 -43 15 -34 11 4 16 14 13 25 -6 22 3 29 63 54 25 10 52 25 60 34 8 9 26 21
40 28 22 10 23 12 5 12 -11 1 -31 -7 -45 -16z"/>
<path d="M2183 2576 c-15 -12 -32 -25 -38 -27 -24 -10 -115 -73 -111 -76 5 -6
90 39 94 50 2 4 8 7 13 7 24 0 99 42 99 55 0 22 -25 18 -57 -9z"/>
<path d="M3227 2574 l-28 -24 26 0 c14 0 28 7 31 15 11 29 -2 33 -29 9z"/>
<path d="M2230 2521 c-8 -5 -26 -14 -40 -21 -14 -8 -59 -31 -100 -53 -73 -38
-114 -67 -94 -67 6 0 32 14 58 30 27 17 61 34 77 37 16 3 32 10 35 14 3 5 14
9 25 9 10 0 19 5 19 10 0 6 9 10 19 10 23 0 37 18 25 30 -5 4 -16 5 -24 1z"/>
<path d="M3193 2503 c-27 -4 -33 -9 -33 -28 l0 -24 35 20 c34 20 55 41 38 37
-4 0 -23 -3 -40 -5z"/>
<path d="M3222 2453 c-18 -3 -22 -9 -16 -21 4 -9 7 -31 7 -49 -1 -29 0 -31 18
-20 10 6 19 21 19 32 0 11 3 30 6 43 4 12 2 21 -2 21 -5 -1 -19 -4 -32 -6z"/>
<path d="M2200 2405 c-50 -27 -37 -34 16 -9 33 16 54 34 37 34 -4 -1 -28 -12
-53 -25z"/>
<path d="M1980 2340 c-21 -12 -28 -19 -18 -20 10 0 32 9 50 20 42 25 15 25
-32 0z"/>
<path d="M2235 2331 c-16 -9 -46 -27 -65 -39 -19 -12 -43 -22 -52 -22 -9 0
-21 -6 -25 -13 -4 -8 -21 -22 -36 -32 -15 -10 -26 -19 -24 -21 4 -4 110 48
130 64 7 5 33 16 60 26 34 13 47 23 47 37 0 10 -1 19 -2 18 -2 0 -16 -8 -33
-18z"/>
<path d="M3240 2320 c-7 -12 -7 -27 -2 -37 5 -10 7 -23 5 -30 -2 -6 1 -14 6
-18 7 -4 11 13 11 49 0 61 -4 67 -20 36z"/>
<path d="M2035 2274 c-20 -15 -20 -16 4 -12 14 2 26 9 29 16 5 16 -9 15 -33
-4z"/>
<path d="M1969 2230 c-18 -15 -20 -19 -8 -20 9 0 24 9 34 20 23 26 4 26 -26 0z"/>
<path d="M2135 2221 c-34 -11 -87 -42 -82 -48 6 -5 117 44 117 52 0 6 -9 5
-35 -4z"/>
<path d="M2245 2210 c-3 -6 1 -7 9 -4 18 7 21 14 7 14 -6 0 -13 -4 -16 -10z"/>
<path d="M2193 2157 c4 -12 36 -11 50 2 4 4 -6 8 -23 9 -20 0 -30 -4 -27 -11z"/>
<path d="M2000 2150 c-8 -5 -12 -11 -9 -14 2 -3 11 -1 19 4 8 5 12 11 9 14 -2
3 -11 1 -19 -4z"/>
<path d="M2105 2126 c-27 -11 -61 -29 -75 -38 -13 -10 -32 -18 -41 -18 -10 0
-20 -11 -23 -26 -8 -32 -6 -35 23 -27 17 4 20 8 9 15 -9 7 -8 8 7 6 11 -1 31
4 43 11 28 15 40 8 22 -14 -9 -11 -9 -15 -1 -15 17 0 41 26 41 44 0 9 5 16 10
16 6 0 10 -7 10 -15 0 -17 31 -20 58 -6 9 5 29 14 45 20 15 6 27 18 27 27 0
13 -6 15 -32 9 -18 -4 -41 -8 -50 -8 -10 -1 -18 -7 -18 -14 0 -7 -4 -13 -10
-13 -18 0 -11 29 10 40 11 6 18 15 15 21 -8 12 -10 11 -70 -15z"/>
<path d="M2691 2029 c-18 -11 -31 -23 -28 -26 6 -5 67 34 67 43 0 6 -3 5 -39
-17z"/>
<path d="M2130 2015 c-6 -8 -21 -17 -33 -21 -12 -4 -44 -22 -71 -41 -43 -30
-46 -33 -21 -27 34 8 165 85 165 97 0 13 -27 8 -40 -8z"/>
<path d="M2215 1999 c-4 -6 -5 -13 -2 -16 8 -7 47 7 47 18 0 13 -37 11 -45 -2z"/>
<path d="M2638 1983 c6 -2 18 -2 25 0 6 3 1 5 -13 5 -14 0 -19 -2 -12 -5z"/>
<path d="M2185 1950 c3 -5 13 -10 21 -10 8 0 14 5 14 10 0 6 -9 10 -21 10 -11
0 -17 -4 -14 -10z"/>
<path d="M2084 1904 c-38 -20 -76 -42 -84 -50 -12 -12 -9 -14 25 -13 22 0 34
3 27 6 -16 6 3 33 23 33 13 0 105 49 105 56 0 12 -34 0 -96 -32z"/>
<path d="M2145 1833 c-27 -14 -61 -31 -75 -37 -48 -21 -100 -59 -100 -72 0
-19 26 -18 34 1 3 8 12 15 19 15 18 0 126 57 152 80 11 9 29 22 40 28 l20 11
-20 0 c-11 -1 -42 -13 -70 -26z"/>
<path d="M2216 1811 c-14 -5 -16 -10 -8 -15 15 -9 52 2 52 15 0 11 -17 11 -44
0z"/>
<path d="M2700 1811 c0 -6 5 -13 10 -16 6 -3 10 1 10 9 0 9 -4 16 -10 16 -5 0
-10 -4 -10 -9z"/>
<path d="M2230 1770 c-8 -4 -40 -18 -70 -30 -30 -13 -68 -33 -83 -46 -16 -13
-37 -24 -47 -24 -26 0 -57 -30 -64 -62 -5 -21 -3 -28 9 -28 17 0 51 18 73 38
7 6 20 12 28 12 9 0 22 7 30 15 8 8 22 11 32 8 15 -6 15 -4 4 9 -11 14 -10 17
6 22 11 4 29 3 41 -2 21 -7 19 -11 -31 -42 -29 -18 -57 -34 -63 -35 -38 -7
-55 -19 -50 -35 7 -22 -4 -50 -20 -50 -13 0 -65 -42 -65 -53 0 -12 44 -7 63 7
13 10 15 15 5 19 -7 2 1 8 17 12 17 5 62 28 100 53 39 24 80 51 93 58 29 19
30 64 2 71 -11 3 -20 11 -20 19 0 7 9 18 20 24 11 6 20 20 20 30 0 22 -7 24
-30 10z"/>
<path d="M2186 1561 c-3 -5 1 -12 10 -15 20 -8 29 -1 19 13 -8 13 -22 14 -29
2z"/>
<path d="M1993 1549 c11 -7 23 -7 28 -2 5 5 -3 9 -19 11 -24 1 -25 0 -9 -9z"/>
<path d="M2147 1496 c-16 -13 -57 -36 -90 -51 -67 -30 -111 -73 -101 -99 5
-13 12 -11 44 14 21 17 45 30 53 30 9 0 20 6 24 13 15 25 74 59 93 54 12 -3
17 0 14 8 -3 7 8 18 25 25 17 7 31 17 31 22 0 6 -8 7 -17 3 -39 -16 -56 -18
-49 -7 10 17 5 14 -27 -12z"/>
<path d="M2200 1425 l-25 -15 34 2 c19 2 36 9 39 16 5 16 -17 15 -48 -3z"/>
<path d="M2155 1355 c-22 -13 -48 -25 -57 -25 -10 0 -18 -3 -18 -8 0 -4 -8
-12 -18 -17 -45 -24 -101 -71 -101 -85 0 -12 2 -12 13 3 7 9 24 17 37 17 13 0
30 9 37 20 7 11 18 20 25 20 7 0 20 9 30 20 9 11 26 20 37 20 11 0 20 3 20 8
0 4 10 12 22 17 22 10 37 35 21 35 -4 0 -26 -11 -48 -25z"/>
<path d="M2230 1323 c-14 -5 -100 -44 -109 -50 -1 -1 0 -6 3 -12 4 -6 17 -6
37 1 21 7 34 7 41 0 7 -7 -8 -17 -46 -31 -31 -12 -62 -21 -67 -21 -6 0 -24
-11 -41 -25 -16 -14 -35 -25 -41 -25 -16 -1 -57 -36 -57 -49 0 -13 5 -14 28
-2 9 5 36 15 60 22 24 7 46 18 50 24 4 6 23 17 42 25 54 21 110 59 110 74 0 7
6 19 14 25 8 7 12 21 9 31 -6 21 -8 22 -33 13z"/>
<path d="M2233 1197 c-13 -5 -23 -16 -23 -24 0 -7 -7 -13 -15 -13 -8 0 -23 -4
-33 -9 -9 -6 -55 -28 -102 -51 -47 -22 -90 -48 -97 -56 -6 -8 -23 -16 -37 -18
-34 -4 -48 -17 -36 -36 8 -12 14 -12 45 3 20 9 44 17 53 17 10 0 33 8 53 18
19 9 51 23 71 31 23 9 34 19 31 28 -3 8 0 11 9 8 8 -3 27 1 43 9 16 8 32 13
35 11 12 -7 32 41 28 67 -3 22 -6 24 -25 15z"/>
<path d="M2251 1094 c0 -11 3 -14 6 -6 3 7 2 16 -1 19 -3 4 -6 -2 -5 -13z"/>
<path d="M2177 1055 c-11 -7 -25 -11 -33 -8 -8 3 -14 0 -14 -6 0 -6 -9 -11
-19 -11 -23 0 -36 -16 -21 -25 13 -8 136 34 151 51 9 11 6 14 -17 14 -16 0
-37 -7 -47 -15z"/>
<path d="M2323 1003 c9 -2 23 -2 30 0 6 3 -1 5 -18 5 -16 0 -22 -2 -12 -5z"/>
<path d="M635 2155 c-11 -13 -27 -24 -35 -25 -12 0 -13 -2 -1 -9 10 -7 5 -11
-18 -16 -17 -4 -29 -11 -25 -16 3 -5 -1 -9 -8 -9 -21 0 -106 -44 -112 -57 -9
-21 32 -15 80 12 68 38 102 65 108 88 3 12 10 17 20 14 8 -3 17 1 20 9 15 40
0 45 -29 9z"/>
<path d="M1122 2160 c17 -27 37 -33 54 -15 14 13 12 16 -11 25 -44 17 -57 13
-43 -10z"/>
<path d="M1192 2114 c-24 -19 -30 -29 -22 -39 13 -16 59 -8 86 16 11 11 24 16
27 12 10 -10 -33 -52 -47 -47 -16 6 -28 -10 -45 -58 -21 -64 2 -71 59 -18 16
15 45 35 65 44 19 9 35 23 35 30 0 25 -41 66 -66 66 -13 0 -24 5 -24 10 0 18
-35 10 -68 -16z"/>
<path d="M450 2100 c0 -5 7 -7 15 -4 8 4 15 8 15 10 0 2 -7 4 -15 4 -8 0 -15
-4 -15 -10z"/>
<path d="M609 2057 c-8 -6 -18 -19 -21 -27 -3 -9 -18 -16 -33 -18 -15 -1 -40
-13 -56 -26 -16 -14 -38 -27 -49 -31 -11 -4 -20 -15 -20 -26 0 -16 4 -19 23
-13 12 3 33 14 47 24 14 9 46 26 71 38 53 26 92 59 86 75 -5 17 -29 19 -48 4z"/>
<path d="M1310 1970 c-25 -16 -50 -33 -56 -37 -5 -5 -18 -13 -29 -19 -27 -15
-46 -47 -36 -62 6 -11 16 -7 43 17 20 17 39 31 43 31 10 0 105 82 105 92 0 15
-25 8 -70 -22z"/>
<path d="M610 1936 c0 -2 7 -7 16 -10 8 -3 12 -2 9 4 -6 10 -25 14 -25 6z"/>
<path d="M1360 1915 c-7 -8 -19 -15 -26 -15 -8 0 -14 -5 -14 -10 0 -6 -11 -16
-25 -22 -14 -6 -32 -23 -41 -37 -9 -14 -11 -20 -3 -13 7 6 21 12 30 12 10 0
19 5 21 10 2 6 18 12 37 15 34 4 62 30 58 54 -3 21 -22 24 -37 6z"/>
<path d="M550 1909 c-8 -5 -36 -18 -61 -28 -29 -12 -48 -27 -52 -40 -7 -27 14
-28 38 -1 10 11 26 20 35 20 9 0 29 14 45 30 28 29 25 39 -5 19z"/>
<path d="M604 1885 c-17 -8 -36 -21 -43 -29 -12 -14 -10 -16 8 -16 35 0 24
-14 -27 -33 -96 -37 -112 -48 -112 -78 0 -34 15 -31 70 10 19 15 56 42 83 60
49 34 59 50 30 52 -12 1 -9 4 7 8 14 4 26 15 28 24 4 20 -2 20 -44 2z"/>
<path d="M1374 1847 c-10 -7 -39 -20 -64 -27 -25 -8 -52 -22 -60 -30 -8 -8
-31 -27 -49 -42 -29 -22 -33 -30 -25 -48 l9 -21 28 25 c16 14 32 26 37 26 5 0
29 17 53 38 24 20 57 47 72 59 31 25 31 40 -1 20z"/>
<path d="M600 1777 c0 -6 -15 -19 -32 -26 -18 -8 -39 -23 -46 -33 -7 -10 -21
-18 -30 -19 -10 0 -12 -3 -4 -6 19 -8 14 -20 -11 -27 -13 -3 -29 -17 -35 -30
-11 -25 -10 -25 21 -20 18 3 44 15 59 25 15 10 32 19 38 19 5 0 10 4 10 9 0 5
15 19 34 32 25 17 32 27 25 35 -7 8 -6 14 1 19 18 11 11 35 -10 35 -11 0 -20
-6 -20 -13z"/>
<path d="M1370 1775 c-14 -8 -36 -15 -50 -15 -22 -1 -23 -2 -7 -11 16 -9 14
-13 -15 -37 -18 -15 -37 -32 -41 -39 -4 -7 -14 -13 -21 -13 -21 0 -43 -32 -49
-72 -3 -20 -3 -38 -1 -41 7 -7 64 16 64 26 0 4 13 13 30 18 16 6 28 15 25 19
-3 5 4 11 15 15 11 3 20 11 20 16 0 5 11 14 24 19 26 10 41 53 34 103 -3 24
-4 25 -28 12z"/>
<path d="M566 1643 c-32 -25 -66 -46 -75 -48 -9 -1 -15 -9 -13 -18 1 -8 -7
-18 -18 -22 -11 -3 -20 -13 -20 -21 0 -12 3 -12 24 1 13 8 29 13 37 10 8 -3
36 12 62 34 44 36 46 40 25 44 -15 3 -9 5 15 6 34 1 37 3 37 31 0 17 -3 30 -7
30 -5 -1 -35 -21 -67 -47z"/>
<path d="M1336 1615 c-20 -30 -20 -35 0 -35 8 0 12 -5 9 -10 -4 -6 -10 -8 -15
-5 -4 2 -18 -4 -32 -14 -13 -11 -35 -21 -48 -23 -14 -1 -25 -8 -25 -15 0 -6
-11 -22 -23 -34 -17 -15 -21 -24 -13 -32 8 -8 14 -8 23 1 7 7 18 12 26 12 8 0
38 21 68 46 49 42 59 46 55 21 -1 -5 3 -6 9 -2 6 3 8 11 4 16 -3 5 -1 16 5 23
9 11 6 15 -11 20 l-23 7 23 9 c12 5 22 16 22 25 0 24 -36 18 -54 -10z"/>
<path d="M435 1470 c3 -5 8 -10 11 -10 2 0 4 5 4 10 0 6 -5 10 -11 10 -5 0 -7
-4 -4 -10z"/>
<path d="M1340 1466 c0 -8 -13 -19 -30 -25 -16 -5 -30 -15 -30 -20 0 -6 -7
-11 -15 -11 -9 0 -18 -7 -21 -15 -4 -8 -14 -15 -24 -15 -23 0 -31 -22 -23 -60
6 -35 6 -35 38 -14 13 9 29 13 35 9 5 -3 10 -2 10 4 0 6 25 29 56 52 48 37 55
46 52 72 -2 22 -9 31 -25 33 -15 3 -23 -1 -23 -10z"/>
<path d="M584 1448 c-3 -10 -19 -26 -35 -35 -18 -11 -28 -24 -26 -34 3 -10 -6
-20 -24 -28 -16 -7 -29 -18 -29 -24 0 -7 -9 -18 -20 -25 -11 -7 -20 -16 -20
-22 0 -5 16 2 36 15 20 14 45 25 54 25 10 0 20 9 23 20 3 12 14 20 26 20 13 0
27 12 37 32 9 18 23 38 30 46 22 21 16 31 -16 29 -19 -1 -32 -9 -36 -19z"/>
<path d="M461 1414 c-19 -20 -20 -24 -6 -24 21 0 55 18 55 29 0 20 -28 17 -49
-5z"/>
<path d="M586 1339 c-25 -17 -51 -40 -57 -50 -5 -11 -20 -19 -34 -19 -14 0
-25 -4 -25 -10 0 -5 10 -10 23 -10 20 0 19 -2 -10 -26 -20 -15 -33 -34 -33
-48 l0 -23 61 31 c34 17 79 48 100 69 32 31 39 45 39 77 0 22 -4 40 -8 40 -5
0 -30 -14 -56 -31z"/>
<path d="M1352 1334 c29 -17 35 -17 41 -1 3 8 -7 12 -30 13 -34 1 -34 0 -11
-12z"/>
<path d="M1320 1300 c-19 -10 -52 -27 -73 -36 -40 -18 -64 -52 -54 -78 8 -21
47 -8 47 16 0 11 4 16 11 12 6 -3 24 9 39 27 l29 34 1 -27 c0 -17 -8 -33 -22
-42 -28 -20 -19 -20 24 -2 18 8 46 17 61 21 22 4 28 11 25 28 -4 27 -30 33
-51 13 -13 -14 -16 -14 -21 -1 -3 8 -2 15 2 15 4 0 13 9 20 20 15 25 7 25 -38
0z"/>
<path d="M600 1216 c-5 -14 -17 -26 -27 -29 -10 -2 -2 -2 17 0 57 8 91 53 39
53 -11 0 -23 -10 -29 -24z"/>
<path d="M1305 1173 c-11 -3 -31 -14 -44 -24 -13 -11 -28 -19 -34 -19 -16 0
-67 -62 -67 -82 0 -24 15 -23 52 4 26 18 34 19 50 9 27 -17 148 22 148 47 0 9
3 27 6 39 9 33 -25 19 -56 -22 -14 -19 -31 -35 -38 -35 -7 0 -21 -5 -32 -12
-27 -17 -37 -2 -14 23 10 11 26 18 36 16 13 -4 18 1 18 15 0 11 8 22 20 25 11
3 20 9 20 14 0 9 -31 10 -65 2z"/>
<path d="M550 1160 c-9 -6 -10 -10 -3 -10 6 0 15 5 18 10 8 12 4 12 -15 0z"/>
<path d="M614 1135 c-10 -14 -27 -25 -38 -25 -10 0 -44 -16 -74 -37 -49 -32
-53 -37 -35 -44 15 -5 47 5 112 37 87 43 111 64 74 64 -15 0 -14 2 3 15 19 14
19 14 -2 15 -12 0 -30 -11 -40 -25z"/>
<path d="M617 1054 c-24 -32 -17 -41 35 -38 73 3 72 2 47 28 -17 17 -27 22
-36 15 -8 -7 -14 -5 -20 4 -6 12 -11 11 -26 -9z"/>
<path d="M1378 1046 c-24 -18 -23 -26 5 -26 29 0 51 15 43 29 -9 15 -27 13
-48 -3z"/>
</g>
</svg>
